<svg xmlns="http://www.w3.org/2000/svg" xmlns:xlink="http://www.w3.org/1999/xlink" width="2000" zoomAndPan="magnify" viewBox="0 0 1500 1499.999933" height="2000" preserveAspectRatio="xMidYMid meet" version="1.0"><defs><g/><clipPath id="520859c2f1"><rect x="0" width="614" y="0" height="926"/></clipPath><clipPath id="1aca57c187"><rect x="0" width="1262" y="0" height="248"/></clipPath></defs><path fill="#176b6b" d="M 1500 750 C 1500 762.273438 1499.699219 774.542969 1499.097656 786.800781 C 1498.496094 799.058594 1497.589844 811.296875 1496.386719 823.511719 C 1495.183594 835.726562 1493.683594 847.90625 1491.882812 860.046875 C 1490.082031 872.1875 1487.984375 884.277344 1485.589844 896.316406 C 1483.195312 908.355469 1480.503906 920.328125 1477.523438 932.234375 C 1474.539062 944.140625 1471.269531 955.96875 1467.707031 967.714844 C 1464.140625 979.460938 1460.292969 991.109375 1456.15625 1002.667969 C 1452.023438 1014.222656 1447.605469 1025.671875 1442.910156 1037.011719 C 1438.210938 1048.351562 1433.238281 1059.570312 1427.992188 1070.667969 C 1422.742188 1081.761719 1417.226562 1092.722656 1411.441406 1103.546875 C 1405.65625 1114.371094 1399.605469 1125.046875 1393.296875 1135.578125 C 1386.984375 1146.105469 1380.421875 1156.472656 1373.601562 1166.675781 C 1366.78125 1176.882812 1359.71875 1186.914062 1352.40625 1196.773438 C 1345.09375 1206.632812 1337.542969 1216.304688 1329.757812 1225.792969 C 1321.972656 1235.28125 1313.957031 1244.574219 1305.714844 1253.667969 C 1297.46875 1262.761719 1289.007812 1271.652344 1280.328125 1280.328125 C 1271.652344 1289.007812 1262.765625 1297.46875 1253.667969 1305.714844 C 1244.574219 1313.957031 1235.28125 1321.972656 1225.792969 1329.757812 C 1216.304688 1337.542969 1206.632812 1345.09375 1196.773438 1352.40625 C 1186.914062 1359.71875 1176.882812 1366.78125 1166.675781 1373.601562 C 1156.472656 1380.421875 1146.105469 1386.984375 1135.578125 1393.296875 C 1125.046875 1399.605469 1114.371094 1405.65625 1103.546875 1411.441406 C 1092.722656 1417.226562 1081.761719 1422.742188 1070.667969 1427.992188 C 1059.570312 1433.238281 1048.351562 1438.210938 1037.011719 1442.910156 C 1025.671875 1447.605469 1014.222656 1452.023438 1002.667969 1456.15625 C 991.109375 1460.292969 979.460938 1464.140625 967.714844 1467.703125 C 955.96875 1471.269531 944.140625 1474.539062 932.234375 1477.523438 C 920.328125 1480.503906 908.355469 1483.195312 896.316406 1485.589844 C 884.277344 1487.984375 872.1875 1490.082031 860.046875 1491.882812 C 847.90625 1493.683594 835.726562 1495.183594 823.511719 1496.386719 C 811.296875 1497.589844 799.058594 1498.496094 786.800781 1499.097656 C 774.542969 1499.699219 762.273438 1500 750 1500 C 737.726562 1500 725.457031 1499.699219 713.199219 1499.097656 C 700.941406 1498.496094 688.703125 1497.589844 676.488281 1496.386719 C 664.273438 1495.183594 652.09375 1493.683594 639.953125 1491.882812 C 627.808594 1490.082031 615.71875 1487.984375 603.683594 1485.589844 C 591.644531 1483.195312 579.671875 1480.503906 567.765625 1477.523438 C 555.859375 1474.539062 544.03125 1471.269531 532.285156 1467.707031 C 520.539062 1464.140625 508.890625 1460.292969 497.332031 1456.15625 C 485.777344 1452.023438 474.328125 1447.605469 462.988281 1442.910156 C 451.648438 1438.210938 440.429688 1433.238281 429.332031 1427.992188 C 418.238281 1422.742188 407.277344 1417.226562 396.453125 1411.441406 C 385.628906 1405.65625 374.949219 1399.605469 364.421875 1393.296875 C 353.894531 1386.984375 343.527344 1380.421875 333.324219 1373.601562 C 323.117188 1366.78125 313.085938 1359.71875 303.226562 1352.40625 C 293.367188 1345.09375 283.691406 1337.542969 274.203125 1329.757812 C 264.71875 1321.972656 255.425781 1313.957031 246.332031 1305.714844 C 237.234375 1297.46875 228.347656 1289.007812 219.667969 1280.328125 C 210.992188 1271.652344 202.53125 1262.761719 194.285156 1253.667969 C 186.042969 1244.574219 178.027344 1235.28125 170.242188 1225.792969 C 162.457031 1216.304688 154.90625 1206.632812 147.59375 1196.773438 C 140.28125 1186.914062 133.21875 1176.882812 126.398438 1166.675781 C 119.578125 1156.472656 113.015625 1146.105469 106.703125 1135.578125 C 100.394531 1125.046875 94.34375 1114.371094 88.558594 1103.546875 C 82.773438 1092.722656 77.257812 1081.761719 72.007812 1070.667969 C 66.761719 1059.570312 61.789062 1048.351562 57.089844 1037.011719 C 52.394531 1025.671875 47.976562 1014.222656 43.84375 1002.667969 C 39.707031 991.109375 35.859375 979.460938 32.292969 967.714844 C 28.730469 955.96875 25.460938 944.140625 22.476562 932.234375 C 19.496094 920.328125 16.804688 908.355469 14.410156 896.316406 C 12.015625 884.277344 9.917969 872.1875 8.117188 860.046875 C 6.316406 847.90625 4.816406 835.726562 3.613281 823.511719 C 2.410156 811.296875 1.503906 799.058594 0.902344 786.800781 C 0.300781 774.542969 0 762.273438 0 750 C 0 737.726562 0.300781 725.457031 0.902344 713.199219 C 1.503906 700.941406 2.410156 688.703125 3.613281 676.488281 C 4.816406 664.273438 6.316406 652.09375 8.117188 639.953125 C 9.917969 627.808594 12.015625 615.71875 14.410156 603.683594 C 16.804688 591.644531 19.496094 579.671875 22.476562 567.765625 C 25.460938 555.859375 28.730469 544.03125 32.292969 532.285156 C 35.859375 520.539062 39.707031 508.890625 43.84375 497.332031 C 47.976562 485.777344 52.394531 474.328125 57.089844 462.988281 C 61.789062 451.648438 66.761719 440.429688 72.007812 429.332031 C 77.257812 418.238281 82.773438 407.277344 88.558594 396.453125 C 94.34375 385.628906 100.394531 374.949219 106.703125 364.421875 C 113.015625 353.894531 119.578125 343.527344 126.398438 333.320312 C 133.21875 323.117188 140.28125 313.085938 147.59375 303.226562 C 154.90625 293.367188 162.457031 283.691406 170.242188 274.203125 C 178.027344 264.714844 186.042969 255.425781 194.285156 246.332031 C 202.53125 237.234375 210.992188 228.347656 219.667969 219.667969 C 228.347656 210.992188 237.234375 202.53125 246.332031 194.285156 C 255.425781 186.042969 264.71875 178.027344 274.203125 170.242188 C 283.691406 162.457031 293.367188 154.90625 303.226562 147.59375 C 313.085938 140.28125 323.117188 133.21875 333.324219 126.398438 C 343.527344 119.578125 353.894531 113.015625 364.421875 106.703125 C 374.949219 100.394531 385.628906 94.34375 396.453125 88.558594 C 407.277344 82.773438 418.238281 77.257812 429.332031 72.007812 C 440.429688 66.761719 451.648438 61.789062 462.988281 57.089844 C 474.328125 52.394531 485.777344 47.976562 497.332031 43.84375 C 508.890625 39.707031 520.539062 35.859375 532.285156 32.292969 C 544.03125 28.730469 555.859375 25.457031 567.765625 22.476562 C 579.671875 19.492188 591.644531 16.804688 603.683594 14.410156 C 615.71875 12.015625 627.8125 9.917969 639.953125 8.117188 C 652.09375 6.316406 664.273438 4.816406 676.488281 3.613281 C 688.703125 2.410156 700.941406 1.503906 713.199219 0.902344 C 725.457031 0.300781 737.726562 0 750 0 C 762.273438 0 774.542969 0.300781 786.800781 0.902344 C 799.058594 1.503906 811.296875 2.410156 823.511719 3.613281 C 835.726562 4.816406 847.90625 6.316406 860.046875 8.117188 C 872.1875 9.917969 884.277344 12.015625 896.316406 14.410156 C 908.355469 16.804688 920.328125 19.492188 932.234375 22.476562 C 944.140625 25.457031 955.96875 28.730469 967.714844 32.292969 C 979.460938 35.859375 991.109375 39.707031 1002.667969 43.84375 C 1014.222656 47.976562 1025.671875 52.394531 1037.011719 57.089844 C 1048.351562 61.789062 1059.570312 66.761719 1070.667969 72.007812 C 1081.761719 77.257812 1092.722656 82.773438 1103.546875 88.558594 C 1114.371094 94.34375 1125.046875 100.394531 1135.578125 106.703125 C 1146.105469 113.015625 1156.472656 119.578125 1166.675781 126.398438 C 1176.882812 133.21875 1186.914062 140.28125 1196.773438 147.59375 C 1206.632812 154.90625 1216.304688 162.457031 1225.792969 170.242188 C 1235.28125 178.027344 1244.574219 186.042969 1253.667969 194.285156 C 1262.765625 202.53125 1271.652344 210.992188 1280.328125 219.667969 C 1289.007812 228.347656 1297.46875 237.234375 1305.714844 246.332031 C 1313.957031 255.425781 1321.972656 264.714844 1329.757812 274.203125 C 1337.542969 283.691406 1345.09375 293.367188 1352.40625 303.226562 C 1359.71875 313.085938 1366.78125 323.117188 1373.601562 333.320312 C 1380.421875 343.527344 1386.984375 353.894531 1393.296875 364.421875 C 1399.605469 374.949219 1405.65625 385.628906 1411.441406 396.453125 C 1417.226562 407.277344 1422.742188 418.238281 1427.992188 429.332031 C 1433.238281 440.429688 1438.210938 451.648438 1442.910156 462.988281 C 1447.605469 474.328125 1452.023438 485.777344 1456.15625 497.332031 C 1460.292969 508.890625 1464.140625 520.539062 1467.707031 532.285156 C 1471.269531 544.03125 1474.539062 555.859375 1477.523438 567.765625 C 1480.503906 579.671875 1483.195312 591.644531 1485.589844 603.683594 C 1487.984375 615.71875 1490.082031 627.8125 1491.882812 639.953125 C 1493.683594 652.09375 1495.183594 664.273438 1496.386719 676.488281 C 1497.589844 688.703125 1498.496094 700.941406 1499.097656 713.199219 C 1499.699219 725.457031 1500 737.726562 1500 750 Z M 1500 750 " fill-opacity="1" fill-rule="nonzero"/><g transform="matrix(1, 0, 0, 1, 503, 39)"><g clip-path="url(#520859c2f1)"><g fill="#ffffff" fill-opacity="0.4"><g transform="translate(30.376475, 664.992808)"><g><path d="M 297.953125 -459.875 C 297.953125 -451.238281 295.175781 -443.988281 289.625 -438.125 C 284.070312 -432.269531 276.976562 -429.34375 268.34375 -429.34375 C 259.695312 -429.34375 252.597656 -432.269531 247.046875 -438.125 C 241.503906 -443.988281 238.734375 -451.238281 238.734375 -459.875 C 238.734375 -468.507812 241.660156 -475.753906 247.515625 -481.609375 C 253.378906 -487.472656 260.320312 -490.40625 268.34375 -490.40625 C 276.351562 -490.40625 283.289062 -487.472656 289.15625 -481.609375 C 295.019531 -475.753906 297.953125 -468.507812 297.953125 -459.875 Z M 214.671875 -318.296875 C 177.660156 -265.253906 147.28125 -221.613281 123.53125 -187.375 C 99.78125 -153.132812 80.960938 -125.375 67.078125 -104.09375 C 53.203125 -82.8125 43.640625 -66.617188 38.390625 -55.515625 C 33.148438 -44.410156 30.53125 -35.160156 30.53125 -27.765625 C 30.53125 -11.722656 37.007812 -3.703125 49.96875 -3.703125 C 67.238281 -3.703125 88.207031 -12.03125 112.875 -28.6875 C 137.550781 -45.34375 162.84375 -66.003906 188.75 -90.671875 C 214.664062 -115.347656 239.035156 -141.566406 261.859375 -169.328125 C 284.679688 -197.085938 302.878906 -222.070312 316.453125 -244.28125 L 323.859375 -239.65625 C 305.960938 -211.894531 284.984375 -183.363281 260.921875 -154.0625 C 236.867188 -124.757812 211.890625 -98.078125 185.984375 -74.015625 C 160.078125 -49.960938 134.476562 -30.378906 109.1875 -15.265625 C 83.894531 -0.148438 61.6875 7.40625 42.5625 7.40625 C 25.90625 7.40625 13.566406 2.78125 5.546875 -6.46875 C -2.472656 -15.726562 -6.484375 -25.910156 -6.484375 -37.015625 C -6.484375 -50.585938 -2.9375 -65.390625 4.15625 -81.421875 C 11.257812 -97.460938 21.59375 -116.429688 35.15625 -138.328125 C 48.726562 -160.234375 65.535156 -185.679688 85.578125 -214.671875 C 105.628906 -243.660156 128.921875 -278.203125 155.453125 -318.296875 Z M 214.671875 -318.296875 "/></g></g></g><g fill="#ffffff" fill-opacity="0.4"><g transform="translate(235.79205, 664.992808)"><g><path d="M 218.375 -425.640625 L 273.890625 -425.640625 L 200.796875 -318.296875 L 322.921875 -318.296875 L 317.375 -307.203125 L 193.390625 -307.203125 C 152.671875 -242.429688 116.582031 -185.988281 85.125 -137.875 C 53.664062 -90.375 37.9375 -56.132812 37.9375 -35.15625 C 37.9375 -23.4375 41.945312 -15.265625 49.96875 -10.640625 C 57.988281 -6.015625 67.238281 -3.703125 77.71875 -3.703125 C 111.03125 -3.703125 154.210938 -25.910156 207.265625 -70.328125 C 233.785156 -92.535156 260.304688 -118.132812 286.828125 -147.125 C 313.359375 -176.113281 340.503906 -208.804688 368.265625 -245.203125 L 373.8125 -241.5 C 307.195312 -155.757812 249.210938 -92.835938 199.859375 -52.734375 C 150.515625 -12.640625 107.644531 7.40625 71.25 7.40625 C 52.125 7.40625 35.617188 1.546875 21.734375 -10.171875 C 7.859375 -21.898438 0.921875 -38.25 0.921875 -59.21875 C 0.921875 -85.738281 17.882812 -124.601562 51.8125 -175.8125 C 69.082031 -201.71875 84.8125 -225.15625 99 -246.125 C 113.1875 -267.101562 126.453125 -287.460938 138.796875 -307.203125 L 88.828125 -307.203125 L 94.375 -318.296875 L 146.203125 -318.296875 Z M 218.375 -425.640625 "/></g></g></g><g fill="#ffffff" fill-opacity="1"><g transform="translate(15.654854, 650.271188)"><g><path d="M 297.953125 -459.875 C 297.953125 -451.238281 295.175781 -443.988281 289.625 -438.125 C 284.070312 -432.269531 276.976562 -429.34375 268.34375 -429.34375 C 259.695312 -429.34375 252.597656 -432.269531 247.046875 -438.125 C 241.503906 -443.988281 238.734375 -451.238281 238.734375 -459.875 C 238.734375 -468.507812 241.660156 -475.753906 247.515625 -481.609375 C 253.378906 -487.472656 260.320312 -490.40625 268.34375 -490.40625 C 276.351562 -490.40625 283.289062 -487.472656 289.15625 -481.609375 C 295.019531 -475.753906 297.953125 -468.507812 297.953125 -459.875 Z M 214.671875 -318.296875 C 177.660156 -265.253906 147.28125 -221.613281 123.53125 -187.375 C 99.78125 -153.132812 80.960938 -125.375 67.078125 -104.09375 C 53.203125 -82.8125 43.640625 -66.617188 38.390625 -55.515625 C 33.148438 -44.410156 30.53125 -35.160156 30.53125 -27.765625 C 30.53125 -11.722656 37.007812 -3.703125 49.96875 -3.703125 C 67.238281 -3.703125 88.207031 -12.03125 112.875 -28.6875 C 137.550781 -45.34375 162.84375 -66.003906 188.75 -90.671875 C 214.664062 -115.347656 239.035156 -141.566406 261.859375 -169.328125 C 284.679688 -197.085938 302.878906 -222.070312 316.453125 -244.28125 L 323.859375 -239.65625 C 305.960938 -211.894531 284.984375 -183.363281 260.921875 -154.0625 C 236.867188 -124.757812 211.890625 -98.078125 185.984375 -74.015625 C 160.078125 -49.960938 134.476562 -30.378906 109.1875 -15.265625 C 83.894531 -0.148438 61.6875 7.40625 42.5625 7.40625 C 25.90625 7.40625 13.566406 2.78125 5.546875 -6.46875 C -2.472656 -15.726562 -6.484375 -25.910156 -6.484375 -37.015625 C -6.484375 -50.585938 -2.9375 -65.390625 4.15625 -81.421875 C 11.257812 -97.460938 21.59375 -116.429688 35.15625 -138.328125 C 48.726562 -160.234375 65.535156 -185.679688 85.578125 -214.671875 C 105.628906 -243.660156 128.921875 -278.203125 155.453125 -318.296875 Z M 214.671875 -318.296875 "/></g></g></g><g fill="#ffffff" fill-opacity="1"><g transform="translate(221.07043, 650.271188)"><g><path d="M 218.375 -425.640625 L 273.890625 -425.640625 L 200.796875 -318.296875 L 322.921875 -318.296875 L 317.375 -307.203125 L 193.390625 -307.203125 C 152.671875 -242.429688 116.582031 -185.988281 85.125 -137.875 C 53.664062 -90.375 37.9375 -56.132812 37.9375 -35.15625 C 37.9375 -23.4375 41.945312 -15.265625 49.96875 -10.640625 C 57.988281 -6.015625 67.238281 -3.703125 77.71875 -3.703125 C 111.03125 -3.703125 154.210938 -25.910156 207.265625 -70.328125 C 233.785156 -92.535156 260.304688 -118.132812 286.828125 -147.125 C 313.359375 -176.113281 340.503906 -208.804688 368.265625 -245.203125 L 373.8125 -241.5 C 307.195312 -155.757812 249.210938 -92.835938 199.859375 -52.734375 C 150.515625 -12.640625 107.644531 7.40625 71.25 7.40625 C 52.125 7.40625 35.617188 1.546875 21.734375 -10.171875 C 7.859375 -21.898438 0.921875 -38.25 0.921875 -59.21875 C 0.921875 -85.738281 17.882812 -124.601562 51.8125 -175.8125 C 69.082031 -201.71875 84.8125 -225.15625 99 -246.125 C 113.1875 -267.101562 126.453125 -287.460938 138.796875 -307.203125 L 88.828125 -307.203125 L 94.375 -318.296875 L 146.203125 -318.296875 Z M 218.375 -425.640625 "/></g></g></g></g></g><g transform="matrix(1, 0, 0, 1, 120, 730)"><g clip-path="url(#1aca57c187)"><g fill="#d9d9d9" fill-opacity="0.4"><g transform="translate(8.600988, 193.148556)"><g><path d="M 29.546875 -122.5625 L 29.546875 0 L 13.546875 0 L 13.546875 -122.5625 Z M 29.546875 -122.5625 "/></g></g></g><g fill="#d9d9d9" fill-opacity="0.4"><g transform="translate(51.851686, 193.148556)"><g><path d="M 29.546875 -13.015625 L 72.453125 -13.015625 L 72.453125 0 L 13.546875 0 L 13.546875 -122.5625 L 29.546875 -122.5625 Z M 29.546875 -13.015625 "/></g></g></g><g fill="#d9d9d9" fill-opacity="0.4"><g transform="translate(127.804125, 193.148556)"><g><path d="M 29.546875 -109.546875 L 29.546875 -68.578125 L 74.203125 -68.578125 L 74.203125 -55.390625 L 29.546875 -55.390625 L 29.546875 -13.1875 L 79.484375 -13.1875 L 79.484375 0 L 13.546875 0 L 13.546875 -122.734375 L 79.484375 -122.734375 L 79.484375 -109.546875 Z M 29.546875 -109.546875 "/></g></g></g><g fill="#d9d9d9" fill-opacity="0.4"><g transform="translate(217.997664, 193.148556)"><g><path d="M 85.984375 -27.25 L 32.53125 -27.25 L 22.6875 0 L 5.796875 0 L 50.109375 -121.859375 L 68.578125 -121.859375 L 112.71875 0 L 95.828125 0 Z M 81.421875 -40.265625 L 59.265625 -102.171875 L 37.109375 -40.265625 Z M 81.421875 -40.265625 "/></g></g></g><g fill="#d9d9d9" fill-opacity="0.4"><g transform="translate(336.497544, 193.148556)"><g><path d="M 109.90625 0 L 93.90625 0 L 29.546875 -97.59375 L 29.546875 0 L 13.546875 0 L 13.546875 -122.734375 L 29.546875 -122.734375 L 93.90625 -25.328125 L 93.90625 -122.734375 L 109.90625 -122.734375 Z M 109.90625 0 "/></g></g></g><g fill="#d9d9d9" fill-opacity="0.4"><g transform="translate(460.096081, 193.148556)"><g><path d="M 85.984375 -27.25 L 32.53125 -27.25 L 22.6875 0 L 5.796875 0 L 50.109375 -121.859375 L 68.578125 -121.859375 L 112.71875 0 L 95.828125 0 Z M 81.421875 -40.265625 L 59.265625 -102.171875 L 37.109375 -40.265625 Z M 81.421875 -40.265625 "/></g></g></g><g fill="#d9d9d9" fill-opacity="0.4"><g transform="translate(578.595932, 193.148556)"><g/></g></g><g fill="#d9d9d9" fill-opacity="0.4"><g transform="translate(625.53877, 193.148556)"><g><path d="M 88.984375 -122.5625 L 88.984375 -109.546875 L 55.5625 -109.546875 L 55.5625 0 L 39.5625 0 L 39.5625 -109.546875 L 5.984375 -109.546875 L 5.984375 -122.5625 Z M 88.984375 -122.5625 "/></g></g></g><g fill="#d9d9d9" fill-opacity="0.4"><g transform="translate(720.655143, 193.148556)"><g><path d="M 29.1875 -122.5625 L 29.1875 -45.015625 C 29.1875 -34.109375 31.851562 -26.019531 37.1875 -20.75 C 42.519531 -15.476562 49.9375 -12.84375 59.4375 -12.84375 C 68.8125 -12.84375 76.164062 -15.476562 81.5 -20.75 C 86.832031 -26.019531 89.5 -34.109375 89.5 -45.015625 L 89.5 -122.5625 L 105.5 -122.5625 L 105.5 -45.1875 C 105.5 -34.988281 103.445312 -26.398438 99.34375 -19.421875 C 95.25 -12.453125 89.710938 -7.265625 82.734375 -3.859375 C 75.753906 -0.460938 67.929688 1.234375 59.265625 1.234375 C 50.585938 1.234375 42.757812 -0.460938 35.78125 -3.859375 C 28.8125 -7.265625 23.300781 -12.453125 19.25 -19.421875 C 15.207031 -26.398438 13.1875 -34.988281 13.1875 -45.1875 L 13.1875 -122.5625 Z M 29.1875 -122.5625 "/></g></g></g><g fill="#d9d9d9" fill-opacity="0.4"><g transform="translate(839.330876, 193.148556)"><g><path d="M 78.078125 0 L 48.890625 -50.109375 L 29.546875 -50.109375 L 29.546875 0 L 13.546875 0 L 13.546875 -122.5625 L 53.109375 -122.5625 C 62.367188 -122.5625 70.191406 -120.976562 76.578125 -117.8125 C 82.960938 -114.644531 87.738281 -110.363281 90.90625 -104.96875 C 94.070312 -99.582031 95.65625 -93.429688 95.65625 -86.515625 C 95.65625 -78.078125 93.222656 -70.632812 88.359375 -64.1875 C 83.492188 -57.738281 76.195312 -53.457031 66.46875 -51.34375 L 97.234375 0 Z M 29.546875 -62.953125 L 53.109375 -62.953125 C 61.785156 -62.953125 68.289062 -65.085938 72.625 -69.359375 C 76.957031 -73.640625 79.125 -79.359375 79.125 -86.515625 C 79.125 -93.785156 76.984375 -99.410156 72.703125 -103.390625 C 68.429688 -107.378906 61.898438 -109.375 53.109375 -109.375 L 29.546875 -109.375 Z M 29.546875 -62.953125 "/></g></g></g><g fill="#d9d9d9" fill-opacity="0.4"><g transform="translate(946.226959, 193.148556)"><g><path d="M 109.90625 0 L 93.90625 0 L 29.546875 -97.59375 L 29.546875 0 L 13.546875 0 L 13.546875 -122.734375 L 29.546875 -122.734375 L 93.90625 -25.328125 L 93.90625 -122.734375 L 109.90625 -122.734375 Z M 109.90625 0 "/></g></g></g><g fill="#d9d9d9" fill-opacity="0.4"><g transform="translate(1069.825526, 193.148556)"><g><path d="M 29.546875 -109.546875 L 29.546875 -68.578125 L 74.203125 -68.578125 L 74.203125 -55.390625 L 29.546875 -55.390625 L 29.546875 -13.1875 L 79.484375 -13.1875 L 79.484375 0 L 13.546875 0 L 13.546875 -122.734375 L 79.484375 -122.734375 L 79.484375 -109.546875 Z M 29.546875 -109.546875 "/></g></g></g><g fill="#d9d9d9" fill-opacity="0.4"><g transform="translate(1160.019003, 193.148556)"><g><path d="M 78.078125 0 L 48.890625 -50.109375 L 29.546875 -50.109375 L 29.546875 0 L 13.546875 0 L 13.546875 -122.5625 L 53.109375 -122.5625 C 62.367188 -122.5625 70.191406 -120.976562 76.578125 -117.8125 C 82.960938 -114.644531 87.738281 -110.363281 90.90625 -104.96875 C 94.070312 -99.582031 95.65625 -93.429688 95.65625 -86.515625 C 95.65625 -78.078125 93.222656 -70.632812 88.359375 -64.1875 C 83.492188 -57.738281 76.195312 -53.457031 66.46875 -51.34375 L 97.234375 0 Z M 29.546875 -62.953125 L 53.109375 -62.953125 C 61.785156 -62.953125 68.289062 -65.085938 72.625 -69.359375 C 76.957031 -73.640625 79.125 -79.359375 79.125 -86.515625 C 79.125 -93.785156 76.984375 -99.410156 72.703125 -103.390625 C 68.429688 -107.378906 61.898438 -109.375 53.109375 -109.375 L 29.546875 -109.375 Z M 29.546875 -62.953125 "/></g></g></g><g fill="#ffffff" fill-opacity="1"><g transform="translate(0.828996, 185.376565)"><g><path d="M 29.546875 -122.5625 L 29.546875 0 L 13.546875 0 L 13.546875 -122.5625 Z M 29.546875 -122.5625 "/></g></g></g><g fill="#ffffff" fill-opacity="1"><g transform="translate(44.079694, 185.376565)"><g><path d="M 29.546875 -13.015625 L 72.453125 -13.015625 L 72.453125 0 L 13.546875 0 L 13.546875 -122.5625 L 29.546875 -122.5625 Z M 29.546875 -13.015625 "/></g></g></g><g fill="#ffffff" fill-opacity="1"><g transform="translate(120.032133, 185.376565)"><g><path d="M 29.546875 -109.546875 L 29.546875 -68.578125 L 74.203125 -68.578125 L 74.203125 -55.390625 L 29.546875 -55.390625 L 29.546875 -13.1875 L 79.484375 -13.1875 L 79.484375 0 L 13.546875 0 L 13.546875 -122.734375 L 79.484375 -122.734375 L 79.484375 -109.546875 Z M 29.546875 -109.546875 "/></g></g></g><g fill="#ffffff" fill-opacity="1"><g transform="translate(210.225672, 185.376565)"><g><path d="M 85.984375 -27.25 L 32.53125 -27.25 L 22.6875 0 L 5.796875 0 L 50.109375 -121.859375 L 68.578125 -121.859375 L 112.71875 0 L 95.828125 0 Z M 81.421875 -40.265625 L 59.265625 -102.171875 L 37.109375 -40.265625 Z M 81.421875 -40.265625 "/></g></g></g><g fill="#ffffff" fill-opacity="1"><g transform="translate(328.725552, 185.376565)"><g><path d="M 109.90625 0 L 93.90625 0 L 29.546875 -97.59375 L 29.546875 0 L 13.546875 0 L 13.546875 -122.734375 L 29.546875 -122.734375 L 93.90625 -25.328125 L 93.90625 -122.734375 L 109.90625 -122.734375 Z M 109.90625 0 "/></g></g></g><g fill="#ffffff" fill-opacity="1"><g transform="translate(452.32409, 185.376565)"><g><path d="M 85.984375 -27.25 L 32.53125 -27.25 L 22.6875 0 L 5.796875 0 L 50.109375 -121.859375 L 68.578125 -121.859375 L 112.71875 0 L 95.828125 0 Z M 81.421875 -40.265625 L 59.265625 -102.171875 L 37.109375 -40.265625 Z M 81.421875 -40.265625 "/></g></g></g><g fill="#ffffff" fill-opacity="1"><g transform="translate(570.82394, 185.376565)"><g/></g></g><g fill="#ffffff" fill-opacity="1"><g transform="translate(617.766779, 185.376565)"><g><path d="M 88.984375 -122.5625 L 88.984375 -109.546875 L 55.5625 -109.546875 L 55.5625 0 L 39.5625 0 L 39.5625 -109.546875 L 5.984375 -109.546875 L 5.984375 -122.5625 Z M 88.984375 -122.5625 "/></g></g></g><g fill="#ffffff" fill-opacity="1"><g transform="translate(712.883151, 185.376565)"><g><path d="M 29.1875 -122.5625 L 29.1875 -45.015625 C 29.1875 -34.109375 31.851562 -26.019531 37.1875 -20.75 C 42.519531 -15.476562 49.9375 -12.84375 59.4375 -12.84375 C 68.8125 -12.84375 76.164062 -15.476562 81.5 -20.75 C 86.832031 -26.019531 89.5 -34.109375 89.5 -45.015625 L 89.5 -122.5625 L 105.5 -122.5625 L 105.5 -45.1875 C 105.5 -34.988281 103.445312 -26.398438 99.34375 -19.421875 C 95.25 -12.453125 89.710938 -7.265625 82.734375 -3.859375 C 75.753906 -0.460938 67.929688 1.234375 59.265625 1.234375 C 50.585938 1.234375 42.757812 -0.460938 35.78125 -3.859375 C 28.8125 -7.265625 23.300781 -12.453125 19.25 -19.421875 C 15.207031 -26.398438 13.1875 -34.988281 13.1875 -45.1875 L 13.1875 -122.5625 Z M 29.1875 -122.5625 "/></g></g></g><g fill="#ffffff" fill-opacity="1"><g transform="translate(831.558885, 185.376565)"><g><path d="M 78.078125 0 L 48.890625 -50.109375 L 29.546875 -50.109375 L 29.546875 0 L 13.546875 0 L 13.546875 -122.5625 L 53.109375 -122.5625 C 62.367188 -122.5625 70.191406 -120.976562 76.578125 -117.8125 C 82.960938 -114.644531 87.738281 -110.363281 90.90625 -104.96875 C 94.070312 -99.582031 95.65625 -93.429688 95.65625 -86.515625 C 95.65625 -78.078125 93.222656 -70.632812 88.359375 -64.1875 C 83.492188 -57.738281 76.195312 -53.457031 66.46875 -51.34375 L 97.234375 0 Z M 29.546875 -62.953125 L 53.109375 -62.953125 C 61.785156 -62.953125 68.289062 -65.085938 72.625 -69.359375 C 76.957031 -73.640625 79.125 -79.359375 79.125 -86.515625 C 79.125 -93.785156 76.984375 -99.410156 72.703125 -103.390625 C 68.429688 -107.378906 61.898438 -109.375 53.109375 -109.375 L 29.546875 -109.375 Z M 29.546875 -62.953125 "/></g></g></g><g fill="#ffffff" fill-opacity="1"><g transform="translate(938.454967, 185.376565)"><g><path d="M 109.90625 0 L 93.90625 0 L 29.546875 -97.59375 L 29.546875 0 L 13.546875 0 L 13.546875 -122.734375 L 29.546875 -122.734375 L 93.90625 -25.328125 L 93.90625 -122.734375 L 109.90625 -122.734375 Z M 109.90625 0 "/></g></g></g><g fill="#ffffff" fill-opacity="1"><g transform="translate(1062.053534, 185.376565)"><g><path d="M 29.546875 -109.546875 L 29.546875 -68.578125 L 74.203125 -68.578125 L 74.203125 -55.390625 L 29.546875 -55.390625 L 29.546875 -13.1875 L 79.484375 -13.1875 L 79.484375 0 L 13.546875 0 L 13.546875 -122.734375 L 79.484375 -122.734375 L 79.484375 -109.546875 Z M 29.546875 -109.546875 "/></g></g></g><g fill="#ffffff" fill-opacity="1"><g transform="translate(1152.247011, 185.376565)"><g><path d="M 78.078125 0 L 48.890625 -50.109375 L 29.546875 -50.109375 L 29.546875 0 L 13.546875 0 L 13.546875 -122.5625 L 53.109375 -122.5625 C 62.367188 -122.5625 70.191406 -120.976562 76.578125 -117.8125 C 82.960938 -114.644531 87.738281 -110.363281 90.90625 -104.96875 C 94.070312 -99.582031 95.65625 -93.429688 95.65625 -86.515625 C 95.65625 -78.078125 93.222656 -70.632812 88.359375 -64.1875 C 83.492188 -57.738281 76.195312 -53.457031 66.46875 -51.34375 L 97.234375 0 Z M 29.546875 -62.953125 L 53.109375 -62.953125 C 61.785156 -62.953125 68.289062 -65.085938 72.625 -69.359375 C 76.957031 -73.640625 79.125 -79.359375 79.125 -86.515625 C 79.125 -93.785156 76.984375 -99.410156 72.703125 -103.390625 C 68.429688 -107.378906 61.898438 -109.375 53.109375 -109.375 L 29.546875 -109.375 Z M 29.546875 -62.953125 "/></g></g></g></g></g><g fill="#ffffff" fill-opacity="0.4"><g transform="translate(531.919849, 1068.755576)"><g><path d="M 54.1875 -17.171875 L 20.5 -17.171875 L 14.296875 0 L 3.65625 0 L 31.59375 -76.796875 L 43.21875 -76.796875 L 71.046875 0 L 60.40625 0 Z M 51.3125 -25.375 L 37.34375 -64.390625 L 23.390625 -25.375 Z M 51.3125 -25.375 "/></g></g></g><g fill="#ffffff" fill-opacity="0.4"><g transform="translate(606.615373, 1068.755576)"><g><path d="M 67.046875 -54.859375 C 64.910156 -59.367188 61.804688 -62.859375 57.734375 -65.328125 C 53.671875 -67.804688 48.945312 -69.046875 43.5625 -69.046875 C 38.164062 -69.046875 33.304688 -67.804688 28.984375 -65.328125 C 24.660156 -62.859375 21.257812 -59.3125 18.78125 -54.6875 C 16.3125 -50.070312 15.078125 -44.734375 15.078125 -38.671875 C 15.078125 -32.617188 16.3125 -27.300781 18.78125 -22.71875 C 21.257812 -18.132812 24.660156 -14.601562 28.984375 -12.125 C 33.304688 -9.65625 38.164062 -8.421875 43.5625 -8.421875 C 51.09375 -8.421875 57.296875 -10.671875 62.171875 -15.171875 C 67.046875 -19.679688 69.890625 -25.78125 70.703125 -33.46875 L 39.890625 -33.46875 L 39.890625 -41.671875 L 81.453125 -41.671875 L 81.453125 -33.90625 C 80.867188 -27.550781 78.875 -21.734375 75.46875 -16.453125 C 72.070312 -11.171875 67.601562 -6.992188 62.0625 -3.921875 C 56.519531 -0.859375 50.351562 0.671875 43.5625 0.671875 C 36.394531 0.671875 29.851562 -1.007812 23.9375 -4.375 C 18.03125 -7.738281 13.359375 -12.410156 9.921875 -18.390625 C 6.484375 -24.378906 4.765625 -31.140625 4.765625 -38.671875 C 4.765625 -46.210938 6.484375 -52.992188 9.921875 -59.015625 C 13.359375 -65.035156 18.03125 -69.726562 23.9375 -73.09375 C 29.851562 -76.457031 36.394531 -78.140625 43.5625 -78.140625 C 51.757812 -78.140625 59.015625 -76.101562 65.328125 -72.03125 C 71.648438 -67.96875 76.25 -62.242188 79.125 -54.859375 Z M 67.046875 -54.859375 "/></g></g></g><g fill="#ffffff" fill-opacity="0.4"><g transform="translate(692.836618, 1068.755576)"><g><path d="M 18.625 -69.046875 L 18.625 -43.21875 L 46.765625 -43.21875 L 46.765625 -34.90625 L 18.625 -34.90625 L 18.625 -8.3125 L 50.09375 -8.3125 L 50.09375 0 L 8.53125 0 L 8.53125 -77.359375 L 50.09375 -77.359375 L 50.09375 -69.046875 Z M 18.625 -69.046875 "/></g></g></g><g fill="#ffffff" fill-opacity="0.4"><g transform="translate(749.689453, 1068.755576)"><g><path d="M 69.265625 0 L 59.1875 0 L 18.625 -61.515625 L 18.625 0 L 8.53125 0 L 8.53125 -77.359375 L 18.625 -77.359375 L 59.1875 -15.953125 L 59.1875 -77.359375 L 69.265625 -77.359375 Z M 69.265625 0 "/></g></g></g><g fill="#ffffff" fill-opacity="0.4"><g transform="translate(827.598855, 1068.755576)"><g><path d="M 4.765625 -38.671875 C 4.765625 -46.210938 6.460938 -52.992188 9.859375 -59.015625 C 13.265625 -65.035156 17.898438 -69.742188 23.765625 -73.140625 C 29.640625 -76.546875 36.160156 -78.25 43.328125 -78.25 C 51.753906 -78.25 59.109375 -76.210938 65.390625 -72.140625 C 71.671875 -68.078125 76.25 -62.316406 79.125 -54.859375 L 67.046875 -54.859375 C 64.910156 -59.515625 61.828125 -63.097656 57.796875 -65.609375 C 53.765625 -68.117188 48.941406 -69.375 43.328125 -69.375 C 37.941406 -69.375 33.101562 -68.117188 28.8125 -65.609375 C 24.53125 -63.097656 21.171875 -59.53125 18.734375 -54.90625 C 16.296875 -50.289062 15.078125 -44.878906 15.078125 -38.671875 C 15.078125 -32.546875 16.296875 -27.171875 18.734375 -22.546875 C 21.171875 -17.929688 24.53125 -14.367188 28.8125 -11.859375 C 33.101562 -9.347656 37.941406 -8.09375 43.328125 -8.09375 C 48.941406 -8.09375 53.765625 -9.328125 57.796875 -11.796875 C 61.828125 -14.273438 64.910156 -17.84375 67.046875 -22.5 L 79.125 -22.5 C 76.25 -15.113281 71.671875 -9.40625 65.390625 -5.375 C 59.109375 -1.34375 51.753906 0.671875 43.328125 0.671875 C 36.160156 0.671875 29.640625 -1.007812 23.765625 -4.375 C 17.898438 -7.738281 13.265625 -12.410156 9.859375 -18.390625 C 6.460938 -24.378906 4.765625 -31.140625 4.765625 -38.671875 Z M 4.765625 -38.671875 "/></g></g></g><g fill="#ffffff" fill-opacity="0.4"><g transform="translate(913.155152, 1068.755576)"><g><path d="M 62.625 -77.25 L 37.453125 -29.140625 L 37.453125 0 L 27.375 0 L 27.375 -29.140625 L 2.109375 -77.25 L 13.296875 -77.25 L 32.359375 -38.125 L 51.421875 -77.25 Z M 62.625 -77.25 "/></g></g></g><g fill="#ffffff" fill-opacity="1"><g transform="translate(527.021473, 1063.8572)"><g><path d="M 54.1875 -17.171875 L 20.5 -17.171875 L 14.296875 0 L 3.65625 0 L 31.59375 -76.796875 L 43.21875 -76.796875 L 71.046875 0 L 60.40625 0 Z M 51.3125 -25.375 L 37.34375 -64.390625 L 23.390625 -25.375 Z M 51.3125 -25.375 "/></g></g></g><g fill="#ffffff" fill-opacity="1"><g transform="translate(601.716997, 1063.8572)"><g><path d="M 67.046875 -54.859375 C 64.910156 -59.367188 61.804688 -62.859375 57.734375 -65.328125 C 53.671875 -67.804688 48.945312 -69.046875 43.5625 -69.046875 C 38.164062 -69.046875 33.304688 -67.804688 28.984375 -65.328125 C 24.660156 -62.859375 21.257812 -59.3125 18.78125 -54.6875 C 16.3125 -50.070312 15.078125 -44.734375 15.078125 -38.671875 C 15.078125 -32.617188 16.3125 -27.300781 18.78125 -22.71875 C 21.257812 -18.132812 24.660156 -14.601562 28.984375 -12.125 C 33.304688 -9.65625 38.164062 -8.421875 43.5625 -8.421875 C 51.09375 -8.421875 57.296875 -10.671875 62.171875 -15.171875 C 67.046875 -19.679688 69.890625 -25.78125 70.703125 -33.46875 L 39.890625 -33.46875 L 39.890625 -41.671875 L 81.453125 -41.671875 L 81.453125 -33.90625 C 80.867188 -27.550781 78.875 -21.734375 75.46875 -16.453125 C 72.070312 -11.171875 67.601562 -6.992188 62.0625 -3.921875 C 56.519531 -0.859375 50.351562 0.671875 43.5625 0.671875 C 36.394531 0.671875 29.851562 -1.007812 23.9375 -4.375 C 18.03125 -7.738281 13.359375 -12.410156 9.921875 -18.390625 C 6.484375 -24.378906 4.765625 -31.140625 4.765625 -38.671875 C 4.765625 -46.210938 6.484375 -52.992188 9.921875 -59.015625 C 13.359375 -65.035156 18.03125 -69.726562 23.9375 -73.09375 C 29.851562 -76.457031 36.394531 -78.140625 43.5625 -78.140625 C 51.757812 -78.140625 59.015625 -76.101562 65.328125 -72.03125 C 71.648438 -67.96875 76.25 -62.242188 79.125 -54.859375 Z M 67.046875 -54.859375 "/></g></g></g><g fill="#ffffff" fill-opacity="1"><g transform="translate(687.938242, 1063.8572)"><g><path d="M 18.625 -69.046875 L 18.625 -43.21875 L 46.765625 -43.21875 L 46.765625 -34.90625 L 18.625 -34.90625 L 18.625 -8.3125 L 50.09375 -8.3125 L 50.09375 0 L 8.53125 0 L 8.53125 -77.359375 L 50.09375 -77.359375 L 50.09375 -69.046875 Z M 18.625 -69.046875 "/></g></g></g><g fill="#ffffff" fill-opacity="1"><g transform="translate(744.791077, 1063.8572)"><g><path d="M 69.265625 0 L 59.1875 0 L 18.625 -61.515625 L 18.625 0 L 8.53125 0 L 8.53125 -77.359375 L 18.625 -77.359375 L 59.1875 -15.953125 L 59.1875 -77.359375 L 69.265625 -77.359375 Z M 69.265625 0 "/></g></g></g><g fill="#ffffff" fill-opacity="1"><g transform="translate(822.700479, 1063.8572)"><g><path d="M 4.765625 -38.671875 C 4.765625 -46.210938 6.460938 -52.992188 9.859375 -59.015625 C 13.265625 -65.035156 17.898438 -69.742188 23.765625 -73.140625 C 29.640625 -76.546875 36.160156 -78.25 43.328125 -78.25 C 51.753906 -78.25 59.109375 -76.210938 65.390625 -72.140625 C 71.671875 -68.078125 76.25 -62.316406 79.125 -54.859375 L 67.046875 -54.859375 C 64.910156 -59.515625 61.828125 -63.097656 57.796875 -65.609375 C 53.765625 -68.117188 48.941406 -69.375 43.328125 -69.375 C 37.941406 -69.375 33.101562 -68.117188 28.8125 -65.609375 C 24.53125 -63.097656 21.171875 -59.53125 18.734375 -54.90625 C 16.296875 -50.289062 15.078125 -44.878906 15.078125 -38.671875 C 15.078125 -32.546875 16.296875 -27.171875 18.734375 -22.546875 C 21.171875 -17.929688 24.53125 -14.367188 28.8125 -11.859375 C 33.101562 -9.347656 37.941406 -8.09375 43.328125 -8.09375 C 48.941406 -8.09375 53.765625 -9.328125 57.796875 -11.796875 C 61.828125 -14.273438 64.910156 -17.84375 67.046875 -22.5 L 79.125 -22.5 C 76.25 -15.113281 71.671875 -9.40625 65.390625 -5.375 C 59.109375 -1.34375 51.753906 0.671875 43.328125 0.671875 C 36.160156 0.671875 29.640625 -1.007812 23.765625 -4.375 C 17.898438 -7.738281 13.265625 -12.410156 9.859375 -18.390625 C 6.460938 -24.378906 4.765625 -31.140625 4.765625 -38.671875 Z M 4.765625 -38.671875 "/></g></g></g><g fill="#ffffff" fill-opacity="1"><g transform="translate(908.256776, 1063.8572)"><g><path d="M 62.625 -77.25 L 37.453125 -29.140625 L 37.453125 0 L 27.375 0 L 27.375 -29.140625 L 2.109375 -77.25 L 13.296875 -77.25 L 32.359375 -38.125 L 51.421875 -77.25 Z M 62.625 -77.25 "/></g></g></g></svg>